<?xml version="1.0" standalone="no"?>
<!DOCTYPE svg PUBLIC "-//W3C//DTD SVG 20010904//EN"
 "http://www.w3.org/TR/2001/REC-SVG-20010904/DTD/svg10.dtd">
<svg version="1.0" xmlns="http://www.w3.org/2000/svg"
 width="100.000000pt" height="100.000000pt" viewBox="0 0 100.000000 100.000000"
 preserveAspectRatio="xMidYMid meet">

<g transform="translate(0.000000,100.000000) scale(0.100000,-0.100000)"
fill="#000000" stroke="none">
<path d="M164 909 c-4 -7 76 -94 192 -210 l199 -199 -200 -200 c-159 -159
-197 -202 -187 -212 10 -10 55 31 225 200 l212 212 -210 210 c-115 115 -213
210 -217 210 -4 0 -10 -5 -14 -11z"/>
<path d="M424 909 c-4 -7 76 -94 192 -210 l199 -199 -200 -200 c-159 -159
-197 -202 -187 -212 10 -10 55 31 225 200 l212 212 -210 210 c-115 115 -213
210 -217 210 -4 0 -10 -5 -14 -11z"/>
</g>
</svg>
