<?xml version="1.0" standalone="no"?>
<!DOCTYPE svg PUBLIC "-//W3C//DTD SVG 20010904//EN"
 "http://www.w3.org/TR/2001/REC-SVG-20010904/DTD/svg10.dtd">
<svg version="1.0" xmlns="http://www.w3.org/2000/svg"
 width="50.000000pt" height="50.000000pt" viewBox="0 0 50.000000 50.000000"
 preserveAspectRatio="xMidYMid meet">

<g transform="translate(0.000000,50.000000) scale(0.100000,-0.100000)"
fill="#000000" stroke="none">
<path d="M50 385 c0 -37 4 -65 10 -65 6 0 10 21 10 47 l0 47 70 -69 c38 -38
73 -66 77 -62 4 4 -24 39 -62 77 l-69 70 47 0 c26 0 47 5 47 10 0 6 -28 10
-65 10 l-65 0 0 -65z"/>
<path d="M320 440 c0 -5 21 -10 47 -10 l47 0 -69 -70 c-38 -38 -66 -73 -62
-77 4 -4 39 24 77 62 l70 69 0 -47 c0 -26 5 -47 10 -47 6 0 10 28 10 65 l0 65
-65 0 c-37 0 -65 -4 -65 -10z"/>
<path d="M137 153 l-67 -68 0 48 c0 26 -4 47 -10 47 -6 0 -10 -28 -10 -65 l0
-65 65 0 c37 0 65 4 65 10 0 6 -21 10 -47 10 l-47 0 67 68 c37 37 67 71 67 75
0 17 -19 3 -83 -60z"/>
<path d="M280 213 c0 -4 30 -38 67 -75 l67 -68 -47 0 c-26 0 -47 -4 -47 -10 0
-6 28 -10 65 -10 l65 0 0 65 c0 37 -4 65 -10 65 -5 0 -10 -21 -10 -47 l0 -47
-68 67 c-64 63 -82 77 -82 60z"/>
</g>
</svg>
