<?xml version="1.0" standalone="no"?>
<!DOCTYPE svg PUBLIC "-//W3C//DTD SVG 20010904//EN"
 "http://www.w3.org/TR/2001/REC-SVG-20010904/DTD/svg10.dtd">
<svg version="1.0" xmlns="http://www.w3.org/2000/svg"
 width="100.000000pt" height="100.000000pt" viewBox="0 0 100.000000 100.000000"
 preserveAspectRatio="xMidYMid meet">

<g transform="translate(0.000000,100.000000) scale(0.100000,-0.100000)"
fill="#000000" stroke="none">
<path d="M84 909 c-4 -7 56 -74 142 -160 l148 -148 -104 -3 c-85 -2 -105 -6
-105 -18 0 -12 23 -15 138 -18 l138 -3 -3 138 c-3 115 -6 138 -18 138 -12 0
-16 -20 -20 -103 l-5 -102 -145 145 c-80 80 -148 145 -152 145 -4 0 -10 -5
-14 -11z"/>
<path d="M750 775 l-145 -145 -5 102 c-4 83 -8 103 -20 103 -12 0 -15 -23 -18
-138 l-3 -138 138 3 c115 3 138 6 138 18 0 12 -20 16 -105 18 l-104 3 148 148
c130 130 160 171 128 171 -4 0 -72 -65 -152 -145z"/>
<path d="M165 430 c-14 -23 11 -30 108 -30 l102 0 -150 -150 c-119 -119 -147
-152 -137 -162 10 -10 43 18 162 137 l149 149 3 -104 c2 -85 6 -105 18 -105
12 0 15 23 18 138 l3 137 -135 0 c-79 0 -137 -4 -141 -10z"/>
<path d="M562 303 c3 -115 6 -138 18 -138 12 0 16 20 18 105 l3 104 149 -149
c119 -119 152 -147 162 -137 10 10 -18 43 -137 162 l-149 149 104 3 c85 2 105
6 105 18 0 12 -23 15 -138 18 l-138 3 3 -138z"/>
</g>
</svg>
